<svg width="202" height="24" viewBox="0 0 202 24" fill="none" xmlns="http://www.w3.org/2000/svg">
<g clip-path="url(#clip0_335_15918)">
<path d="M34.583 23.7154L38.875 10.0986H42.2135L46.5055 23.7154H44.1599L40.2645 11.4987H40.7741L36.926 23.7154H34.583ZM36.9733 20.7656V18.638H44.1231V20.7656H36.9733Z" fill="white"/>
<path d="M48.3965 23.7163V10.0996H57.1906V12.2377H50.6764V23.7163H48.3965Z" fill="white"/>
<path d="M58.8926 23.7163V10.0996H64.5189C64.6503 10.0996 64.821 10.1049 65.0285 10.1127C65.236 10.1232 65.4278 10.1416 65.6064 10.1732C66.3944 10.294 67.0458 10.554 67.558 10.9585C68.0728 11.363 68.4537 11.87 68.7032 12.4846C68.9528 13.0993 69.0762 13.7822 69.0762 14.5308C69.0762 15.2742 68.9501 15.9545 68.698 16.5691C68.4458 17.1838 68.0623 17.6933 67.5501 18.0952C67.0353 18.4997 66.3891 18.7598 65.6064 18.8806C65.4304 18.9069 65.236 18.9253 65.0259 18.9384C64.8157 18.9515 64.645 18.9568 64.5189 18.9568H61.1725V23.7137H58.8926V23.7163ZM61.1725 16.8344H64.4244C64.5505 16.8344 64.6923 16.8292 64.8499 16.816C65.0075 16.8029 65.152 16.7793 65.2859 16.7399C65.6642 16.6453 65.961 16.4772 66.179 16.2382C66.397 15.9991 66.552 15.7286 66.6413 15.4239C66.7332 15.1218 66.7779 14.825 66.7779 14.5361C66.7779 14.2471 66.7332 13.9477 66.6413 13.643C66.5494 13.3383 66.3944 13.0651 66.179 12.8261C65.961 12.5871 65.6642 12.419 65.2859 12.3244C65.1546 12.2876 65.0075 12.264 64.8499 12.2535C64.6923 12.243 64.5505 12.2404 64.4244 12.2404H61.1725V16.8344Z" fill="white"/>
<path d="M76.9175 23.9995C75.5569 23.9995 74.3906 23.7027 73.4188 23.1064C72.4469 22.5102 71.7035 21.6802 71.1834 20.6137C70.6634 19.5473 70.4033 18.3127 70.4033 16.9075C70.4033 15.5022 70.6634 14.265 71.1834 13.2012C71.7035 12.1348 72.4495 11.3048 73.4188 10.7085C74.3906 10.1122 75.5569 9.81543 76.9175 9.81543C78.2781 9.81543 79.447 10.1122 80.4215 10.7085C81.396 11.3048 82.142 12.1348 82.6621 13.2012C83.1821 14.2677 83.4422 15.5022 83.4422 16.9075C83.4422 18.3127 83.1821 19.5499 82.6621 20.6137C82.142 21.6802 81.396 22.5102 80.4215 23.1064C79.447 23.7027 78.2781 23.9995 76.9175 23.9995ZM76.9175 21.8535C77.8316 21.8588 78.5933 21.6591 79.2001 21.2494C79.8095 20.8396 80.2665 20.2617 80.5712 19.5184C80.8759 18.775 81.0309 17.9056 81.0309 16.9075C81.0309 15.912 80.8785 15.0452 80.5712 14.3123C80.2639 13.5795 79.8095 13.0068 79.2001 12.5971C78.5907 12.1873 77.8316 11.9772 76.9175 11.9641C76.0034 11.9588 75.2443 12.1584 74.6375 12.5682C74.0334 12.978 73.5764 13.5558 73.2717 14.2992C72.967 15.0425 72.812 15.912 72.812 16.9101C72.812 17.9056 72.9643 18.7724 73.2664 19.5053C73.5685 20.2407 74.0255 20.8107 74.6323 21.2205C75.2417 21.6302 76.0034 21.8404 76.9175 21.8535Z" fill="white"/>
<path d="M88.4144 23.7154V12.2368H84.0068V10.0986H95.0993V12.2368H90.6917V23.7154H88.4144Z" fill="white"/>
<path d="M96.8008 23.7163V10.0996H105.595V12.2377H99.0807V15.5946H104.46V17.7327H99.0807V21.5808H105.595V23.719H96.8008V23.7163Z" fill="white"/>
<path d="M106.919 23.7163L111.534 16.8318L107.053 10.0996H109.842L112.945 14.8933L116.018 10.0996H118.826L114.345 16.8318L118.941 23.7163H116.152L112.947 18.7703L109.732 23.7163H106.919Z" fill="white"/>
<path d="M131.57 23.7163H129.264V14.1184L122.947 23.7163H120.641V10.0996H122.947V19.6975L129.264 10.0996H131.57V23.7163Z" fill="white"/>
<path d="M134.407 23.7154V10.0986H136.459L141.168 19.7438L145.878 10.0986H147.929V23.7154H145.802V14.9895L141.623 23.718H140.714L136.543 14.9895V23.718H134.407V23.7154Z" fill="white"/>
<path d="M150.767 23.7154V10.0986H161.804V23.7154H159.524V12.2368H153.047V23.7154H150.767Z" fill="white"/>
<path d="M170.398 23.9995C169.037 23.9995 167.871 23.7027 166.899 23.1064C165.927 22.5102 165.184 21.6802 164.664 20.6137C164.144 19.5473 163.884 18.3127 163.884 16.9075C163.884 15.5022 164.144 14.265 164.664 13.2012C165.184 12.1348 165.93 11.3048 166.899 10.7085C167.871 10.1122 169.037 9.81543 170.398 9.81543C171.759 9.81543 172.927 10.1122 173.902 10.7085C174.876 11.3048 175.622 12.1348 176.143 13.2012C176.663 14.2677 176.923 15.5022 176.923 16.9075C176.923 18.3127 176.663 19.5499 176.143 20.6137C175.622 21.6802 174.876 22.5102 173.902 23.1064C172.927 23.7027 171.759 23.9995 170.398 23.9995ZM170.398 21.8535C171.312 21.8588 172.074 21.6591 172.681 21.2494C173.29 20.8396 173.747 20.2617 174.052 19.5184C174.356 18.775 174.511 17.9056 174.511 16.9075C174.511 15.912 174.359 15.0452 174.052 14.3123C173.744 13.5795 173.29 13.0068 172.681 12.5971C172.071 12.1873 171.312 11.9772 170.398 11.9641C169.484 11.9588 168.725 12.1584 168.118 12.5682C167.511 12.978 167.057 13.5558 166.752 14.2992C166.447 15.0425 166.292 15.912 166.292 16.9101C166.292 17.9056 166.445 18.7724 166.747 19.5053C167.049 20.2407 167.506 20.8107 168.113 21.2205C168.722 21.6302 169.484 21.8404 170.398 21.8535Z" fill="white"/>
<path d="M179.003 23.7163V10.0996H184.629C184.761 10.0996 184.931 10.1049 185.139 10.1127C185.346 10.1232 185.538 10.1416 185.717 10.1732C186.505 10.294 187.156 10.554 187.668 10.9585C188.183 11.363 188.564 11.87 188.814 12.4846C189.063 13.0993 189.187 13.7822 189.187 14.5308C189.187 15.2742 189.061 15.9545 188.808 16.5691C188.556 17.1838 188.173 17.6933 187.66 18.0952C187.146 18.4997 186.499 18.7598 185.717 18.8806C185.541 18.9069 185.346 18.9253 185.136 18.9384C184.926 18.9515 184.755 18.9568 184.629 18.9568H181.283V23.7137H179.003V23.7163ZM181.28 16.8344H184.532C184.658 16.8344 184.8 16.8292 184.958 16.816C185.115 16.8029 185.26 16.7793 185.394 16.7399C185.772 16.6453 186.069 16.4772 186.287 16.2382C186.505 15.9991 186.66 15.7286 186.749 15.4239C186.841 15.1218 186.886 14.825 186.886 14.5361C186.886 14.2471 186.841 13.9477 186.749 13.643C186.657 13.3383 186.502 13.0651 186.287 12.8261C186.069 12.5871 185.772 12.419 185.394 12.3244C185.262 12.2876 185.115 12.264 184.958 12.2535C184.8 12.243 184.658 12.2404 184.532 12.2404H181.28V16.8344Z" fill="white"/>
<path d="M194.54 23.7163V12.2377H190.133V10.0996H201.225V12.2377H196.818V23.7163H194.54Z" fill="white"/>
<path d="M7.02637 18.5578V23.6404H9.95775V16.8662L7.02637 18.5578Z" fill="white"/>
<path d="M19.1091 23.6403V11.7178L15.957 13.5381V23.6403H19.1091Z" fill="white"/>
<path d="M15.957 0V8.4264L19.1091 6.60611V0H15.957Z" fill="white"/>
<path d="M26.2012 0V23.6401H23.0491V8.69957L14.6438 13.5537V23.6401H11.4917V15.374L3.15202 20.1887V23.6401H0V0H10.1784V11.8174L7.02638 13.6377V3.15202H3.15202V16.5481L23.0491 5.05899V0H26.2012Z" fill="white"/>
</g>
<defs>
<clipPath id="clip0_335_15918">
<rect width="201.225" height="24" fill="white"/>
</clipPath>
</defs>
</svg>
