<svg width="528" height="160" viewBox="0 0 528 160" fill="none" xmlns="http://www.w3.org/2000/svg">
<path d="M447.349 0.0195312H407.355L380.691 53.3459L410.358 53.3521L427.459 19.1948L497.756 160H527.424L447.349 0.0195312Z" fill="white"/>
<path d="M434.017 66.6907L87.3938 66.6783L74.0622 93.3415H127.389V133.336H80.1232C50.898 133.336 27.1208 109.52 27.1208 80.0285C27.1208 50.5369 50.898 26.6762 80.1232 26.6762H140.671V0H80.1232C36.2609 0 0.576172 35.9009 0.576172 80.0291C0.576172 124.157 36.2609 160 80.1232 160H154.052V93.3415H194.047V160H300.7L314.032 133.337H220.711V93.342H360.526L327.364 160.001H357.017L390.35 93.342H447.35L434.017 66.6907Z" fill="white"/>
<path d="M220.712 26.6762L314.032 26.6829V0.0197555L194.033 0L194.035 53.3523H220.712V26.6762Z" fill="white"/>
</svg>
