<svg width="48" height="48" viewBox="0 0 48 48" fill="none" xmlns="http://www.w3.org/2000/svg">
<path fill-rule="evenodd" clip-rule="evenodd" d="M10 16C10 14.8954 10.8954 14 12 14H36C37.1046 14 38 14.8954 38 16C38 17.1046 37.1046 18 36 18H12C10.8954 18 10 17.1046 10 16ZM10 24C10 22.8954 10.8954 22 12 22H36C37.1046 22 38 22.8954 38 24C38 25.1046 37.1046 26 36 26H12C10.8954 26 10 25.1046 10 24ZM10 32C10 30.8954 10.8954 30 12 30H36C37.1046 30 38 30.8954 38 32C38 33.1046 37.1046 34 36 34H12C10.8954 34 10 33.1046 10 32Z" fill="#4A4A4A"/>
</svg>
