<svg width="403" height="48" viewBox="0 0 403 48" fill="none" xmlns="http://www.w3.org/2000/svg">
<g clip-path="url(#clip0_365_16937)">
<path d="M69.1641 47.4307L77.7481 20.1973H84.4251L93.0091 47.4307H88.3178L80.5271 22.9973H81.5462L73.8501 47.4307H69.1641ZM73.9446 41.5312V37.276H88.2443V41.5312H73.9446Z" fill="white"/>
<path d="M96.7891 47.4327V20.1992H114.377V24.4755H101.349V47.4327H96.7891Z" fill="white"/>
<path d="M117.781 47.4327V20.1992H129.034C129.297 20.1992 129.638 20.2097 130.053 20.2255C130.468 20.2465 130.852 20.2833 131.209 20.3463C132.785 20.588 134.088 21.1081 135.112 21.9171C136.142 22.7261 136.903 23.74 137.403 24.9693C137.902 26.1986 138.149 27.5644 138.149 29.0616C138.149 30.5483 137.896 31.909 137.392 33.1383C136.888 34.3675 136.121 35.3867 135.096 36.1905C134.067 36.9995 132.774 37.5196 131.209 37.7612C130.857 37.8138 130.468 37.8505 130.048 37.8768C129.628 37.9031 129.286 37.9136 129.034 37.9136H122.341V47.4274H117.781V47.4327ZM122.341 33.6688H128.845C129.097 33.6688 129.381 33.6583 129.696 33.6321C130.011 33.6058 130.3 33.5585 130.568 33.4797C131.324 33.2906 131.918 32.9544 132.354 32.4763C132.79 31.9983 133.1 31.4572 133.279 30.8478C133.463 30.2437 133.552 29.65 133.552 29.0722C133.552 28.4943 133.463 27.8954 133.279 27.286C133.095 26.6766 132.785 26.1303 132.354 25.6522C131.918 25.1742 131.324 24.8379 130.568 24.6488C130.305 24.5753 130.011 24.528 129.696 24.507C129.381 24.486 129.097 24.4807 128.845 24.4807H122.341V33.6688Z" fill="white"/>
<path d="M153.833 47.999C151.112 47.999 148.779 47.4054 146.836 46.2129C144.892 45.0204 143.405 43.3603 142.365 41.2274C141.325 39.0946 140.805 36.6255 140.805 33.8149C140.805 31.0044 141.325 28.5301 142.365 26.4024C143.405 24.2696 144.897 22.6095 146.836 21.417C148.779 20.2245 151.112 19.6309 153.833 19.6309C156.554 19.6309 158.892 20.2245 160.841 21.417C162.79 22.6095 164.282 24.2696 165.322 26.4024C166.362 28.5353 166.882 31.0044 166.882 33.8149C166.882 36.6255 166.362 39.0998 165.322 41.2274C164.282 43.3603 162.79 45.0204 160.841 46.2129C158.892 47.4054 156.554 47.999 153.833 47.999ZM153.833 43.707C155.661 43.7175 157.185 43.3183 158.398 42.4988C159.617 41.6792 160.531 40.5235 161.14 39.0368C161.75 37.5501 162.06 35.8112 162.06 33.8149C162.06 31.8239 161.755 30.0903 161.14 28.6246C160.526 27.1589 159.617 26.0137 158.398 25.1942C157.179 24.3746 155.661 23.9544 153.833 23.9281C152.005 23.9176 150.487 24.3169 149.273 25.1364C148.065 25.9559 147.151 27.1117 146.541 28.5984C145.932 30.0851 145.622 31.8239 145.622 33.8202C145.622 35.8112 145.927 37.5448 146.531 39.0105C147.135 40.4815 148.049 41.6214 149.263 42.441C150.481 43.2605 152.005 43.6808 153.833 43.707Z" fill="white"/>
<path d="M176.827 47.4307V24.4735H168.012V20.1973H190.197V24.4735H181.382V47.4307H176.827Z" fill="white"/>
<path d="M193.602 47.4327V20.1992H211.19V24.4755H198.161V31.1893H208.92V35.4655H198.161V43.1617H211.19V47.4379H193.602V47.4327Z" fill="white"/>
<path d="M213.836 47.4327L223.066 33.6636L214.104 20.1992H219.683L225.887 29.7866L232.034 20.1992H237.649L228.687 33.6636L237.881 47.4327H232.302L225.892 37.5406L219.462 47.4327H213.836Z" fill="white"/>
<path d="M263.14 47.4327H258.528V28.2369L245.894 47.4327H241.281V20.1992H245.894V39.395L258.528 20.1992H263.14V47.4327Z" fill="white"/>
<path d="M268.812 47.4307V20.1973H272.915L282.335 39.4876L291.754 20.1973H295.857V47.4307H291.602V29.979L283.243 47.436H281.426L273.083 29.979V47.436H268.812V47.4307Z" fill="white"/>
<path d="M301.531 47.4307V20.1973H323.606V47.4307H319.046V24.4735H306.091V47.4307H301.531Z" fill="white"/>
<path d="M340.794 47.999C338.073 47.999 335.74 47.4054 333.797 46.2129C331.853 45.0204 330.366 43.3603 329.326 41.2274C328.286 39.0946 327.766 36.6255 327.766 33.8149C327.766 31.0044 328.286 28.5301 329.326 26.4024C330.366 24.2696 331.858 22.6095 333.797 21.417C335.74 20.2245 338.073 19.6309 340.794 19.6309C343.515 19.6309 345.853 20.2245 347.802 21.417C349.751 22.6095 351.243 24.2696 352.283 26.4024C353.323 28.5353 353.843 31.0044 353.843 33.8149C353.843 36.6255 353.323 39.0998 352.283 41.2274C351.243 43.3603 349.751 45.0204 347.802 46.2129C345.853 47.4054 343.515 47.999 340.794 47.999ZM340.794 43.707C342.622 43.7175 344.146 43.3183 345.359 42.4988C346.578 41.6792 347.492 40.5235 348.101 39.0368C348.711 37.5501 349.021 35.8112 349.021 33.8149C349.021 31.8239 348.716 30.0903 348.101 28.6246C347.487 27.1589 346.578 26.0137 345.359 25.1942C344.14 24.3746 342.622 23.9544 340.794 23.9281C338.966 23.9176 337.448 24.3169 336.234 25.1364C335.021 25.9559 334.112 27.1117 333.502 28.5984C332.893 30.0851 332.583 31.8239 332.583 33.8202C332.583 35.8112 332.888 37.5448 333.492 39.0105C334.096 40.4815 335.01 41.6214 336.224 42.441C337.442 43.2605 338.966 43.6808 340.794 43.707Z" fill="white"/>
<path d="M358.004 47.4327V20.1992H369.257C369.519 20.1992 369.861 20.2097 370.276 20.2255C370.691 20.2465 371.074 20.2833 371.432 20.3463C373.008 20.588 374.31 21.1081 375.335 21.9171C376.364 22.7261 377.126 23.74 377.625 24.9693C378.124 26.1986 378.371 27.5644 378.371 29.0616C378.371 30.5483 378.119 31.909 377.615 33.1383C377.11 34.3675 376.343 35.3867 375.319 36.1905C374.289 36.9995 372.997 37.5196 371.432 37.7612C371.08 37.8138 370.691 37.8505 370.271 37.8768C369.85 37.9031 369.509 37.9136 369.257 37.9136H362.564V47.4274H358.004V47.4327ZM362.559 33.6688H369.062C369.314 33.6688 369.598 33.6583 369.913 33.6321C370.229 33.6058 370.517 33.5585 370.785 33.4797C371.542 33.2906 372.135 32.9544 372.572 32.4763C373.008 31.9983 373.317 31.4572 373.496 30.8478C373.68 30.2437 373.769 29.65 373.769 29.0722C373.769 28.4943 373.68 27.8954 373.496 27.286C373.312 26.6766 373.002 26.1303 372.572 25.6522C372.135 25.1742 371.542 24.8379 370.785 24.6488C370.523 24.5753 370.229 24.528 369.913 24.507C369.598 24.486 369.314 24.4807 369.062 24.4807H362.559V33.6688Z" fill="white"/>
<path d="M389.081 47.4327V24.4755H380.266V20.1992H402.451V24.4755H393.635V47.4327H389.081Z" fill="white"/>
<path d="M14.0547 37.1156V47.2809H19.9174V33.7324L14.0547 37.1156Z" fill="white"/>
<path d="M38.2181 47.2806V23.4355L31.9141 27.0761V47.2806H38.2181Z" fill="white"/>
<path d="M31.9141 0V16.8528L38.2181 13.2122V0H31.9141Z" fill="white"/>
<path d="M52.4023 0V47.2803H46.0983V17.3991L29.2875 27.1074V47.2803H22.9835V30.7479L6.30404 40.3774V47.2803H0V0H20.3568V23.6349L14.0528 27.2755V6.30404H6.30404V33.0962L46.0983 10.118V0H52.4023Z" fill="white"/>
</g>
<defs>
<clipPath id="clip0_365_16937">
<rect width="402.45" height="48" fill="white"/>
</clipPath>
</defs>
</svg>
