<svg width="537" height="64" viewBox="0 0 537 64" fill="none" xmlns="http://www.w3.org/2000/svg">
<g clip-path="url(#clip0_701_6078)">
<path d="M92.3906 63.2439L103.836 26.9326H112.739L124.184 63.2439H117.929L107.541 30.666H108.9L98.6386 63.2439H92.3906ZM98.7647 55.3778V49.7042H117.831V55.3778H98.7647Z" fill="#4A65C3"/>
<path d="M129.229 63.2439V26.9326H152.68V32.6343H135.308V63.2439H129.229Z" fill="#4A65C3"/>
<path d="M157.217 63.2439V26.9326H172.22C172.571 26.9326 173.026 26.9466 173.579 26.9676C174.133 26.9957 174.644 27.0447 175.12 27.1287C177.222 27.4509 178.959 28.1444 180.325 29.2231C181.697 30.3018 182.713 31.6536 183.379 33.2927C184.044 34.9317 184.373 36.7529 184.373 38.7492C184.373 40.7315 184.037 42.5456 183.365 44.1847C182.692 45.8237 181.669 47.1826 180.304 48.2543C178.931 49.333 177.208 50.0264 175.12 50.3486C174.651 50.4187 174.133 50.4677 173.572 50.5027C173.012 50.5377 172.557 50.5517 172.22 50.5517H163.297V63.2369H157.217V63.2439ZM163.297 44.8921H171.968C172.304 44.8921 172.683 44.8781 173.103 44.8431C173.523 44.8081 173.908 44.745 174.266 44.64C175.274 44.3878 176.066 43.9395 176.647 43.3021C177.229 42.6647 177.642 41.9432 177.88 41.1307C178.125 40.3252 178.244 39.5337 178.244 38.7632C178.244 37.9927 178.125 37.1942 177.88 36.3817C177.635 35.5691 177.222 34.8407 176.647 34.2033C176.066 33.5659 175.274 33.1176 174.266 32.8654C173.915 32.7674 173.523 32.7043 173.103 32.6763C172.683 32.6483 172.304 32.6413 171.968 32.6413H163.297V44.8921Z" fill="#4A65C3"/>
<path d="M205.283 64C201.655 64 198.545 63.2085 195.953 61.6185C193.362 60.0285 191.379 57.815 189.992 54.9712C188.606 52.1274 187.912 48.8353 187.912 45.0879C187.912 41.3405 188.606 38.0414 189.992 35.2046C191.379 32.3607 193.369 30.1473 195.953 28.5573C198.545 26.9673 201.655 26.1758 205.283 26.1758C208.912 26.1758 212.029 26.9673 214.627 28.5573C217.226 30.1473 219.215 32.3607 220.602 35.2046C221.989 38.0484 222.682 41.3405 222.682 45.0879C222.682 48.8353 221.989 52.1344 220.602 54.9712C219.215 57.815 217.226 60.0285 214.627 61.6185C212.029 63.2085 208.912 64 205.283 64ZM205.283 58.2773C207.721 58.2914 209.752 57.759 211.37 56.6663C212.995 55.5736 214.214 54.0326 215.026 52.0504C215.839 50.0681 216.252 47.7496 216.252 45.0879C216.252 42.4332 215.846 40.1217 215.026 38.1675C214.207 36.2132 212.995 34.6862 211.37 33.5935C209.745 32.5008 207.721 31.9405 205.283 31.9055C202.846 31.8914 200.821 32.4238 199.203 33.5165C197.592 34.6092 196.374 36.1502 195.561 38.1324C194.748 40.1147 194.335 42.4332 194.335 45.0949C194.335 47.7496 194.741 50.0611 195.547 52.0153C196.353 53.9766 197.571 55.4966 199.189 56.5893C200.814 57.682 202.846 58.2423 205.283 58.2773Z" fill="#4A65C3"/>
<path d="M235.941 63.2439V32.6343H224.188V26.9326H253.767V32.6343H242.014V63.2439H235.941Z" fill="#4A65C3"/>
<path d="M258.307 63.2439V26.9326H281.758V32.6343H264.387V41.586H278.732V47.2877H264.387V57.5492H281.758V63.2509H258.307V63.2439Z" fill="#4A65C3"/>
<path d="M285.287 63.2439L297.594 44.8851L285.644 26.9326H293.083L301.355 39.7158L309.551 26.9326H317.038L305.089 44.8851L317.347 63.2439H309.908L301.362 50.0544L292.789 63.2439H285.287Z" fill="#4A65C3"/>
<path d="M351.025 63.2439H344.875V37.6495L328.029 63.2439H321.879V26.9326H328.029V52.527L344.875 26.9326H351.025V63.2439Z" fill="#4A65C3"/>
<path d="M358.588 63.2439V26.9326H364.058L376.617 52.6531L389.176 26.9326H394.647V63.2439H388.973V39.975L377.829 63.2509H375.406L364.283 39.975V63.2509H358.588V63.2439Z" fill="#4A65C3"/>
<path d="M402.213 63.2439V26.9326H431.646V63.2439H425.566V32.6343H408.293V63.2439H402.213Z" fill="#4A65C3"/>
<path d="M454.564 64C450.936 64 447.826 63.2085 445.235 61.6185C442.643 60.0285 440.661 57.815 439.274 54.9712C437.887 52.1274 437.193 48.8353 437.193 45.0879C437.193 41.3405 437.887 38.0414 439.274 35.2046C440.661 32.3607 442.65 30.1473 445.235 28.5573C447.826 26.9673 450.936 26.1758 454.564 26.1758C458.193 26.1758 461.31 26.9673 463.908 28.5573C466.507 30.1473 468.496 32.3607 469.883 35.2046C471.27 38.0484 471.964 41.3405 471.964 45.0879C471.964 48.8353 471.27 52.1344 469.883 54.9712C468.496 57.815 466.507 60.0285 463.908 61.6185C461.31 63.2085 458.193 64 454.564 64ZM454.564 58.2773C457.002 58.2914 459.033 57.759 460.651 56.6663C462.276 55.5736 463.495 54.0326 464.308 52.0504C465.12 50.0681 465.534 47.7496 465.534 45.0879C465.534 42.4332 465.127 40.1217 464.308 38.1675C463.488 36.2132 462.276 34.6862 460.651 33.5935C459.026 32.5008 457.002 31.9405 454.564 31.9055C452.127 31.8914 450.103 32.4238 448.485 33.5165C446.867 34.6092 445.655 36.1502 444.842 38.1324C444.03 40.1147 443.617 42.4332 443.617 45.0949C443.617 47.7496 444.023 50.0611 444.828 52.0153C445.634 53.9766 446.853 55.4966 448.471 56.5893C450.096 57.682 452.127 58.2423 454.564 58.2773Z" fill="#4A65C3"/>
<path d="M477.512 63.2439V26.9326H492.515C492.866 26.9326 493.321 26.9466 493.874 26.9676C494.428 26.9957 494.939 27.0447 495.415 27.1287C497.517 27.4509 499.254 28.1444 500.62 29.2231C501.992 30.3018 503.008 31.6536 503.674 33.2927C504.339 34.9317 504.668 36.7529 504.668 38.7492C504.668 40.7315 504.332 42.5456 503.659 44.1847C502.987 45.8237 501.964 47.1826 500.599 48.2543C499.226 49.333 497.503 50.0264 495.415 50.3486C494.946 50.4187 494.428 50.4677 493.867 50.5027C493.307 50.5377 492.852 50.5517 492.515 50.5517H483.592V63.2369H477.512V63.2439ZM483.585 44.8921H492.256C492.592 44.8921 492.971 44.8781 493.391 44.8431C493.811 44.8081 494.196 44.745 494.554 44.64C495.562 44.3878 496.354 43.9395 496.935 43.3021C497.517 42.6647 497.93 41.9432 498.168 41.1307C498.413 40.3252 498.532 39.5337 498.532 38.7632C498.532 37.9927 498.413 37.1942 498.168 36.3817C497.923 35.5691 497.51 34.8407 496.935 34.2033C496.354 33.5659 495.562 33.1176 494.554 32.8654C494.203 32.7674 493.811 32.7043 493.391 32.6763C492.971 32.6483 492.592 32.6413 492.256 32.6413H483.585V44.8921Z" fill="#4A65C3"/>
<path d="M518.943 63.2439V32.6343H507.189V26.9326H536.769V32.6343H525.016V63.2439H518.943Z" fill="#4A65C3"/>
<path d="M18.9062 49.4865V63.0402H26.7233V44.9756L18.9062 49.4865Z" fill="#01A73F"/>
<path d="M51.128 63.0404V31.2471L42.7227 36.1012V63.0404H51.128Z" fill="#01A73F"/>
<path d="M42.7227 0V22.4704L51.128 17.6163V0H42.7227Z" fill="#01A73F"/>
<path d="M70.0397 0V63.0404H61.6343V23.1989L39.2199 36.1432V63.0404H30.8146V40.9973L8.57531 53.8365V63.0404H0.169922V0H27.3123V31.5132L18.9069 36.3673V8.40539H8.57531V44.1283L61.6343 13.4906V0H70.0397Z" fill="#01A73F"/>
</g>
<defs>
<clipPath id="clip0_701_6078">
<rect width="536.6" height="64" fill="white" transform="translate(0.169922)"/>
</clipPath>
</defs>
</svg>
