<svg width="159" height="48" viewBox="0 0 159 48" fill="none" xmlns="http://www.w3.org/2000/svg">
<path d="M134.032 0.00585938H122.033L114.034 16.0038L122.934 16.0056L128.064 5.75844L149.154 47.9999H158.054L134.032 0.00585938Z" fill="#0303B8"/>
<path d="M130.032 20.0072L26.0453 20.0035L22.0458 28.0024H38.0439V40.0009H23.8641C15.0966 40.0009 7.9634 32.856 7.9634 24.0086C7.9634 15.1611 15.0966 8.00285 23.8641 8.00285H42.0283V0H23.8641C10.7054 0 0 10.7703 0 24.0087C0 37.247 10.7054 48 23.8641 48H46.0429V28.0024H58.0413V48H90.0373L94.0368 40.001H66.0404V28.0026H107.985L98.0364 48.0002H106.932L116.932 28.0026H134.032L130.032 20.0072Z" fill="#0303B8"/>
<path d="M66.0406 8.00285L94.0368 8.00488V0.00592666L58.0371 0L58.0378 16.0057H66.0406V8.00285Z" fill="#0303B8"/>
</svg>
