<svg width="403" height="48" viewBox="0 0 403 48" fill="none" xmlns="http://www.w3.org/2000/svg">
<g clip-path="url(#clip0_700_4828)">
<path d="M69.166 47.4307L77.75 20.1973H84.427L93.011 47.4307H88.3198L80.529 22.9973H81.5482L73.852 47.4307H69.166ZM73.9466 41.5312V37.276H88.2462V41.5312H73.9466Z" fill="#4A4A4A"/>
<path d="M96.793 47.4327V20.1992H114.381V24.4755H101.353V47.4327H96.793Z" fill="#4A4A4A"/>
<path d="M117.785 47.4327V20.1992H129.038C129.301 20.1992 129.642 20.2097 130.057 20.2255C130.472 20.2465 130.856 20.2833 131.213 20.3463C132.789 20.588 134.092 21.1081 135.116 21.9171C136.146 22.7261 136.907 23.74 137.406 24.9693C137.906 26.1986 138.152 27.5644 138.152 29.0616C138.152 30.5483 137.9 31.909 137.396 33.1383C136.892 34.3675 136.125 35.3867 135.1 36.1905C134.071 36.9995 132.778 37.5196 131.213 37.7612C130.861 37.8138 130.472 37.8505 130.052 37.8768C129.631 37.9031 129.29 37.9136 129.038 37.9136H122.345V47.4274H117.785V47.4327ZM122.345 33.6688H128.849C129.101 33.6688 129.385 33.6583 129.7 33.6321C130.015 33.6058 130.304 33.5585 130.572 33.4797C131.328 33.2906 131.922 32.9544 132.358 32.4763C132.794 31.9983 133.104 31.4572 133.283 30.8478C133.466 30.2437 133.556 29.65 133.556 29.0722C133.556 28.4943 133.466 27.8954 133.283 27.286C133.099 26.6766 132.789 26.1303 132.358 25.6522C131.922 25.1742 131.328 24.8379 130.572 24.6488C130.309 24.5753 130.015 24.528 129.7 24.507C129.385 24.486 129.101 24.4807 128.849 24.4807H122.345V33.6688Z" fill="#4A4A4A"/>
<path d="M153.835 47.999C151.114 47.999 148.781 47.4054 146.838 46.2129C144.894 45.0204 143.407 43.3603 142.367 41.2274C141.327 39.0946 140.807 36.6255 140.807 33.8149C140.807 31.0044 141.327 28.5301 142.367 26.4024C143.407 24.2696 144.899 22.6095 146.838 21.417C148.781 20.2245 151.114 19.6309 153.835 19.6309C156.556 19.6309 158.894 20.2245 160.843 21.417C162.792 22.6095 164.284 24.2696 165.324 26.4024C166.364 28.5353 166.884 31.0044 166.884 33.8149C166.884 36.6255 166.364 39.0998 165.324 41.2274C164.284 43.3603 162.792 45.0204 160.843 46.2129C158.894 47.4054 156.556 47.999 153.835 47.999ZM153.835 43.707C155.663 43.7175 157.187 43.3183 158.4 42.4988C159.619 41.6792 160.533 40.5235 161.142 39.0368C161.752 37.5501 162.062 35.8112 162.062 33.8149C162.062 31.8239 161.757 30.0903 161.142 28.6246C160.528 27.1589 159.619 26.0137 158.4 25.1942C157.181 24.3746 155.663 23.9544 153.835 23.9281C152.007 23.9176 150.489 24.3169 149.275 25.1364C148.067 25.9559 147.153 27.1117 146.543 28.5984C145.934 30.0851 145.624 31.8239 145.624 33.8202C145.624 35.8112 145.929 37.5448 146.533 39.0105C147.137 40.4815 148.051 41.6214 149.265 42.441C150.483 43.2605 152.007 43.6808 153.835 43.707Z" fill="#4A4A4A"/>
<path d="M176.829 47.4327V24.4755H168.014V20.1992H190.199V24.4755H181.383V47.4327H176.829Z" fill="#4A4A4A"/>
<path d="M193.602 47.4327V20.1992H211.19V24.4755H198.161V31.1893H208.92V35.4655H198.161V43.1617H211.19V47.4379H193.602V47.4327Z" fill="#4A4A4A"/>
<path d="M213.84 47.4327L223.07 33.6636L214.108 20.1992H219.687L225.891 29.7866L232.038 20.1992H237.653L228.691 33.6636L237.885 47.4327H232.305L225.896 37.5406L219.466 47.4327H213.84Z" fill="#4A4A4A"/>
<path d="M263.14 47.4327H258.528V28.2369L245.894 47.4327H241.281V20.1992H245.894V39.395L258.528 20.1992H263.14V47.4327Z" fill="#4A4A4A"/>
<path d="M268.814 47.4327V20.1992H272.917L282.337 39.4896L291.756 20.1992H295.859V47.4327H291.604V29.981L283.245 47.4379H281.428L273.085 29.981V47.4379H268.814V47.4327Z" fill="#4A4A4A"/>
<path d="M301.533 47.4327V20.1992H323.608V47.4327H319.048V24.4755H306.093V47.4327H301.533Z" fill="#4A4A4A"/>
<path d="M340.798 47.999C338.077 47.999 335.744 47.4054 333.8 46.2129C331.857 45.0204 330.37 43.3603 329.33 41.2274C328.29 39.0946 327.77 36.6255 327.77 33.8149C327.77 31.0044 328.29 28.5301 329.33 26.4024C330.37 24.2696 331.862 22.6095 333.8 21.417C335.744 20.2245 338.077 19.6309 340.798 19.6309C343.519 19.6309 345.857 20.2245 347.806 21.417C349.755 22.6095 351.247 24.2696 352.287 26.4024C353.327 28.5353 353.847 31.0044 353.847 33.8149C353.847 36.6255 353.327 39.0998 352.287 41.2274C351.247 43.3603 349.755 45.0204 347.806 46.2129C345.857 47.4054 343.519 47.999 340.798 47.999ZM340.798 43.707C342.626 43.7175 344.15 43.3183 345.363 42.4988C346.582 41.6792 347.496 40.5235 348.105 39.0368C348.715 37.5501 349.025 35.8112 349.025 33.8149C349.025 31.8239 348.72 30.0903 348.105 28.6246C347.491 27.1589 346.582 26.0137 345.363 25.1942C344.144 24.3746 342.626 23.9544 340.798 23.9281C338.97 23.9176 337.451 24.3169 336.238 25.1364C335.024 25.9559 334.116 27.1117 333.506 28.5984C332.897 30.0851 332.587 31.8239 332.587 33.8202C332.587 35.8112 332.892 37.5448 333.496 39.0105C334.1 40.4815 335.014 41.6214 336.227 42.441C337.446 43.2605 338.97 43.6808 340.798 43.707Z" fill="#4A4A4A"/>
<path d="M358.008 47.4327V20.1992H369.261C369.523 20.1992 369.865 20.2097 370.28 20.2255C370.695 20.2465 371.078 20.2833 371.435 20.3463C373.011 20.588 374.314 21.1081 375.339 21.9171C376.368 22.7261 377.13 23.74 377.629 24.9693C378.128 26.1986 378.375 27.5644 378.375 29.0616C378.375 30.5483 378.123 31.909 377.619 33.1383C377.114 34.3675 376.347 35.3867 375.323 36.1905C374.293 36.9995 373.001 37.5196 371.435 37.7612C371.083 37.8138 370.695 37.8505 370.274 37.8768C369.854 37.9031 369.513 37.9136 369.261 37.9136H362.568V47.4274H358.008V47.4327ZM362.563 33.6688H369.066C369.318 33.6688 369.602 33.6583 369.917 33.6321C370.232 33.6058 370.521 33.5585 370.789 33.4797C371.546 33.2906 372.139 32.9544 372.575 32.4763C373.011 31.9983 373.321 31.4572 373.5 30.8478C373.684 30.2437 373.773 29.65 373.773 29.0722C373.773 28.4943 373.684 27.8954 373.5 27.286C373.316 26.6766 373.006 26.1303 372.575 25.6522C372.139 25.1742 371.546 24.8379 370.789 24.6488C370.527 24.5753 370.232 24.528 369.917 24.507C369.602 24.486 369.318 24.4807 369.066 24.4807H362.563V33.6688Z" fill="#4A4A4A"/>
<path d="M389.081 47.4327V24.4755H380.266V20.1992H402.451V24.4755H393.635V47.4327H389.081Z" fill="#4A4A4A"/>
<path d="M14.0527 37.1156V47.2809H19.9155V33.7324L14.0527 37.1156Z" fill="#4A4A4A"/>
<path d="M38.2181 47.2806V23.4355L31.9141 27.0761V47.2806H38.2181Z" fill="#4A4A4A"/>
<path d="M31.9141 0V16.8528L38.2181 13.2122V0H31.9141Z" fill="#4A4A4A"/>
<path d="M52.4023 0V47.2803H46.0983V17.3991L29.2875 27.1074V47.2803H22.9835V30.7479L6.30404 40.3774V47.2803H0V0H20.3568V23.6349L14.0528 27.2755V6.30404H6.30404V33.0962L46.0983 10.118V0H52.4023Z" fill="#4A4A4A"/>
</g>
<defs>
<clipPath id="clip0_700_4828">
<rect width="402.45" height="48" fill="white"/>
</clipPath>
</defs>
</svg>
