<svg width="159" height="24" viewBox="0 0 159 24" fill="none" xmlns="http://www.w3.org/2000/svg">
<g clip-path="url(#clip0_335_16801)">
<path d="M141.694 21.7646C143.471 15.8977 145.226 10.1968 146.906 4.47832C147.238 3.35209 147.854 3.10327 148.941 3.09018C152.839 3.0378 152.843 2.99851 153.961 6.59109C155.519 11.5936 157.069 16.6005 158.727 21.9523C157.723 21.9523 156.946 21.8606 156.204 21.9698C154.668 22.1968 153.996 21.5463 153.686 20.084C153.472 19.0756 153.088 17.4998 152.442 17.3077C150.979 16.8712 149.29 17.0414 147.718 17.1898C147.356 17.2248 146.963 18.1327 146.784 18.7002C145.671 22.2011 145.693 22.2055 141.694 21.7646ZM152.197 13.9683C151.459 11.3666 150.791 9.02252 150.128 6.68276C149.997 6.69149 149.866 6.69585 149.735 6.70458C149.141 9.0749 148.543 11.4452 147.91 13.9683C149.412 13.9683 150.621 13.9683 152.197 13.9683Z" fill="white"/>
<path d="M122.793 6.56068C122.793 5.32968 122.793 4.34751 122.793 3.23438C127.477 3.23438 132.152 3.23438 136.98 3.23438C136.98 4.24274 136.98 5.21619 136.98 6.47337C135.422 6.47337 133.806 6.47337 131.938 6.47337C131.938 11.7466 131.938 16.7404 131.938 21.8346C130.48 21.8346 129.275 21.8346 127.804 21.8346C127.804 16.7884 127.804 11.7946 127.804 6.55631C125.997 6.56068 124.447 6.56068 122.793 6.56068Z" fill="white"/>
<path d="M98.7012 3.47042C98.9587 3.26526 99.0111 3.18668 99.0722 3.18232C103.014 2.82001 103.023 2.82001 104.07 6.52608C105.083 10.1056 106.074 13.6894 107.244 17.8582C107.899 15.4835 108.396 13.6196 108.92 11.7687C109.413 10.0401 109.933 8.31582 110.448 6.59156C111.579 2.82001 111.583 2.82001 115.808 3.28272C113.805 9.22379 111.84 15.143 109.754 21.0186C109.588 21.4813 108.536 21.9135 107.921 21.8829C106.733 21.8262 104.73 21.7302 104.511 21.1321C102.394 15.2784 100.578 9.31546 98.7012 3.47042Z" fill="white"/>
<path d="M93.6471 21.8088C92.9705 21.8655 92.4685 21.8699 91.9753 21.9528C89.9105 22.2977 88.7494 21.5643 88.4089 19.4079C88.2823 18.596 87.6973 17.3082 87.143 17.2122C85.6108 16.9372 83.9782 17.0987 82.4023 17.282C82.1186 17.3126 81.8829 18.2293 81.717 18.7662C80.63 22.3064 80.6388 22.3064 76.6533 21.7258C78.43 15.8677 80.1804 10.0227 82.0138 4.20381C82.1579 3.74983 82.8476 3.23037 83.3452 3.16053C87.4311 2.57995 87.7104 2.78512 88.9283 6.69199C90.4954 11.6902 92.0538 16.6927 93.6471 21.8088ZM82.817 13.9339C84.406 13.9339 85.6675 13.9339 87.1342 13.9339C86.4227 11.4239 85.7635 9.09286 85.1044 6.75747C84.9691 6.7662 84.8294 6.7793 84.6941 6.78803C84.0873 9.09287 83.4849 11.3977 82.817 13.9339Z" fill="white"/>
<path d="M69.7868 21.8092C68.9094 21.8746 68.3986 21.8572 67.9141 21.9576C65.7751 22.4072 64.8541 21.3683 64.5965 19.4039C64.5048 18.6924 64.2866 17.9983 64.0945 17.3042C63.3961 14.8117 62.4925 14.266 59.5983 14.7157C59.5983 17.0205 59.5983 19.3646 59.5983 21.8266C58.1753 21.8266 56.9748 21.8266 55.626 21.8266C55.626 15.6935 55.626 9.60836 55.626 3.10854C58.3193 3.10854 60.9821 2.96885 63.6231 3.14782C66.072 3.3137 68.176 4.26969 68.8046 6.97176C69.4332 9.6651 68.2939 11.5858 66.4386 12.6466C67.5692 15.724 68.6474 18.6793 69.7868 21.8092ZM59.6813 11.3981C61.6718 11.6295 63.527 11.7735 64.4743 9.93138C64.8497 9.20239 64.7755 7.82298 64.2997 7.17256C63.1822 5.64037 61.4536 5.77569 59.6813 6.27769C59.6813 7.95394 59.6813 9.5778 59.6813 11.3981Z" fill="white"/>
<path d="M36.6236 21.8306C35.362 21.8306 34.1572 21.8306 32.8477 21.8306C32.8477 15.6277 32.8477 9.53818 32.8477 3.27844C34.1485 3.27844 35.3969 3.27844 36.8462 3.27844C36.8462 5.84956 36.8462 8.33337 36.8462 10.8128C36.9946 10.8696 37.1474 10.9307 37.2958 10.9874C38.3959 9.36357 39.7142 7.84447 40.5435 6.09401C42.0059 3.02526 44.3588 2.59747 47.5497 3.35265C45.8735 5.50907 44.3107 7.63494 42.617 9.64731C41.7483 10.6819 41.6392 11.4589 42.4119 12.6462C44.3195 15.584 46.0525 18.6353 47.8989 21.7128C43.4857 22.337 43.4857 22.337 41.5519 18.9452C40.6003 17.2734 39.6399 15.6058 38.6578 13.8903C35.6152 16.0598 37.4661 19.146 36.6236 21.8306Z" fill="white"/>
<path d="M10.8205 11.5766C12.213 9.76068 13.5575 8.00149 14.998 6.12445C10.1963 4.41328 9.90381 9.11899 7.57715 11.0353C7.57715 7.33798 7.57715 3.79342 7.57715 0.0349583C12.069 0.0349583 16.4647 -0.0785375 20.8518 0.087341C22.8336 0.16155 24.1737 1.86399 24.1999 3.97239C24.2654 9.28923 24.2829 14.6104 24.1956 19.9273C24.1519 22.6512 21.8514 24.4016 19.1494 23.9127C18.6735 23.8254 18.1279 23.4107 17.866 22.9917C15.4913 19.2245 13.1821 15.4224 10.8205 11.5766Z" fill="white"/>
<path d="M4.26004 19.1942C5.46921 19.1942 6.3117 19.1942 7.27204 19.1942C7.47285 17.3739 7.66928 15.606 7.86135 13.8381C8.11017 13.8032 8.35898 13.7683 8.6078 13.7377C10.5634 17.0247 12.5147 20.3161 14.6449 23.9C10.6638 23.9 7.01013 24.0178 3.36517 23.8519C1.41828 23.7646 0.0694259 22.0535 0.0475997 19.9363C-0.0135134 14.6108 -0.0222438 9.28955 0.051965 3.96834C0.0825215 1.58929 1.44884 0.371396 4.26441 0.0527344C4.26004 6.36048 4.26004 12.642 4.26004 19.1942Z" fill="white"/>
</g>
<defs>
<clipPath id="clip0_335_16801">
<rect width="158.733" height="24" fill="white"/>
</clipPath>
</defs>
</svg>
