<svg width="64" height="48" viewBox="0 0 64 48" fill="none" xmlns="http://www.w3.org/2000/svg">
<path d="M27.2862 14.6977C28.4689 8.78346 25.1312 3.05011 19.4844 0.930384C14.1161 -1.08504 8.9615 0.343244 5.54723 3.58677L5.54386 3.57919C5.52115 3.60106 5.50348 3.62546 5.48077 3.64733C5.09299 4.02081 4.72541 4.41448 4.38642 4.83338C-7.32424 18.6898 6.58186 43.2408 20.6881 47.9682C21.2383 48.1524 21.6841 47.4954 21.2963 47.0648C19.2834 44.8298 15.5882 40.1765 13.8428 34.4675C12.5583 30.2659 14.1195 26.3368 17.9863 24.2499C21.3072 22.4566 26.0463 20.8987 27.2862 14.6977Z" fill="#01A73F"/>
<path d="M62.8097 14.6977C63.9923 8.78346 60.6546 3.05011 55.0079 0.930384C49.6396 -1.08504 44.4849 0.343244 41.0707 3.58677L41.0673 3.57919C41.0446 3.60106 41.0269 3.62546 41.0042 3.64733C40.6164 4.02081 40.2488 4.41448 39.9099 4.83338C28.1992 18.6898 42.1053 43.2408 56.2116 47.9682C56.7617 48.1524 57.2075 47.4954 56.8198 47.0648C54.8069 44.8298 51.1116 40.1765 49.3654 34.4675C48.0809 30.2659 49.6421 26.3368 53.5089 24.2499C56.8315 22.4566 61.5698 20.8987 62.8097 14.6977Z" fill="#01A73F"/>
</svg>
